<?xml version="1.0" encoding="UTF-8"?>
<svg id="Layer_3" data-name="Layer 3" xmlns="http://www.w3.org/2000/svg" viewBox="0 0 1924.5 656.85">
  <defs>
    <style>
      .cls-1 {
        fill: #fff;
      }
    </style>
  </defs>
  <g id="Layer_1" data-name="Layer 1">
    <g>
      <path class="cls-1" d="M94.06,170.67c7.76-1.29,13.26-4.26,16.5-8.95,3.24-4.69,4.1-11.9,2.56-21.65-2.14-13.49-3.21-20.23-5.35-33.71-1.54-9.75-4.63-16.34-9.27-19.76-4.64-3.42-10.98-4.48-18.97-3.15-9.24,1.54-13.85,2.33-23.08,3.93,6.08,34.84,9.11,52.27,15.19,87.11,8.96-1.56,13.45-2.33,22.42-3.82M0,55.89c29.06-5.54,43.62-8.14,72.78-13,24.59-4.1,44.03-.94,58.05,9.18,14.02,10.11,22.58,26.78,25.86,49.85,1.6,11.24,2.4,16.86,4,28.1,3.28,23.08-.17,41.41-10.12,55.08-9.96,13.68-26.49,22.28-49.75,26.15-8.85,1.47-13.28,2.23-22.12,3.77,6.71,38.49,13.42,76.98,20.13,115.47-17.97,3.13-26.95,4.77-44.89,8.19C35.96,244.41,17.98,150.15,0,55.89"/>
      <path class="cls-1" d="M173.74,27.74c19.87-2.65,29.81-3.9,49.71-6.23,11.18,95.31,22.37,190.61,33.56,285.92-18.08,2.12-27.12,3.26-45.17,5.67-12.7-95.12-25.4-190.24-38.09-285.35"/>
      <path class="cls-1" d="M277.32,264.58c21.41-71.82,44.37-142.99,68.93-213.8-34.73,2.74-52.09,4.35-86.75,8.07-1.75-16.36-2.63-24.54-4.38-40.89,47.05-5.04,94.21-9.02,141.43-11.94.99,16.09,1.49,24.14,2.48,40.23-25.76,70.38-49.92,141.15-72.55,212.59,34.08-3.12,51.14-4.42,85.29-6.53,1.02,16.42,1.52,24.63,2.54,41.05-44.3,2.74-88.52,6.51-132.64,11.3-1.74-16.03-2.61-24.04-4.35-40.07"/>
      <path class="cls-1" d="M430.65,252.02c25.16-70.58,51.82-140.44,80.06-209.85-34.81.9-52.2,1.59-86.98,3.47-.88-16.43-1.33-24.64-2.21-41.07C468.73,2.02,516,.54,563.28.12c.14,16.12.21,24.18.36,40.3-29.42,68.92-57.28,138.31-83.63,208.46,34.17-1.31,51.27-1.71,85.46-2.01.15,16.45.22,24.67.36,41.12-44.34.39-88.68,1.81-132.95,4.26-.89-16.09-1.34-24.14-2.23-40.24"/>
      <path class="cls-1" d="M591.46,0c45.46,0,90.92.99,136.34,2.96-.71,16.43-1.07,24.65-1.78,41.09-34.07-1.48-51.12-1.98-85.21-2.52-.48,30.43-.73,45.64-1.21,76.08,26.43.42,39.65.77,66.07,1.77-.62,16.44-.93,24.66-1.55,41.1-26.06-.98-39.1-1.33-65.18-1.75-.56,35.36-.85,53.04-1.41,88.41,31.84.51,47.76.98,79.59,2.36-.71,16.43-1.07,24.65-1.78,41.09-41.27-1.79-82.59-2.68-123.9-2.69,0-95.96.02-191.92.03-287.88"/>
      <path class="cls-1" d="M815.38,131.67c9.59.71,16.96-1.03,22.14-5.29,5.18-4.25,8.24-11.84,9.16-22.76.74-8.85,1.11-13.28,1.85-22.13.87-10.38-.5-18.06-4.14-23.04-3.64-4.97-9.8-7.81-18.45-8.46-8.95-.68-13.43-1-22.39-1.61-2.24,32.82-3.36,49.24-5.61,82.06,6.98.48,10.46.73,17.44,1.24M756.41,4.33c29.61,1.55,44.4,2.5,73.98,4.75,25.69,1.95,43.99,9.07,54.69,20.95,10.71,11.89,14.85,29.06,12.62,51.43-.7,7.04-1.05,10.56-1.76,17.6-2.96,29.74-15.3,47.47-36.79,53.53-.03.33-.04.49-.07.82,11.25,4.31,18.75,11.78,22.49,22.34,3.74,10.56,4.74,24.3,3.05,41.21-2.01,20.13-3.02,30.2-5.03,50.33-.82,8.19-1.2,14.83-1.15,19.93.05,5.1.92,10.22,2.62,15.35-18.43-1.87-27.66-2.73-46.11-4.31-1.25-4.78-1.98-9.25-2.19-13.39-.21-4.14.13-11.55,1.03-22.2,1.76-20.98,2.64-31.47,4.4-52.45,1.1-13.11-.34-22.46-4.34-28.01-4.01-5.55-11.47-8.77-22.36-9.58-6.53-.48-9.8-.72-16.34-1.16-2.8,41.03-5.61,82.06-8.41,123.09-18.14-1.24-27.22-1.79-45.38-2.74,5.03-95.83,10.05-191.66,15.07-287.49"/>
      <path class="cls-1" d="M939.12,19.23c19.91,2.21,29.86,3.39,49.74,5.92-12.09,95.2-24.18,190.39-36.28,285.59-18.07-2.29-27.11-3.37-45.2-5.38,10.58-95.37,21.16-190.75,31.74-286.13"/>
      <path class="cls-1" d="M1086.11,234.09c.94-47.96,1.63-95.92,2.07-143.89-.35-.06-.53-.09-.88-.14-14.57,45.68-28.92,91.43-43.03,137.26,16.75,2.59,25.12,3.95,41.85,6.78M1064.23,35.65c26.86,4.07,40.28,6.26,67.07,10.91.43,97.4-.48,194.74-2.76,292.11-17.93-3.42-26.91-5.06-44.88-8.19.66-23.09.95-34.64,1.48-57.75-.06.32-.08.49-.14.81-20.83-3.57-31.26-5.26-52.14-8.45-6.75,21.77-10.09,32.66-16.7,54.46-16.71-2.51-25.08-3.7-41.82-5.95,28.67-93.08,58.63-185.7,89.89-277.94"/>
      <path class="cls-1" d="M515.09,305.05c18.1,3.45,27.15,5.12,45.28,8.34-3.11,75.08-5.71,150.17-7.82,225.29.35.06.52.09.86.15,22.69-71.64,44.9-143.42,66.63-215.35,16.53,2.65,24.8,3.93,41.36,6.39-28.77,92.82-58.48,185.3-89.16,277.5-25.8-4.15-38.68-6.34-64.42-10.92,1.42-97.16,3.84-194.28,7.26-291.39"/>
      <path class="cls-1" d="M683.12,333.02c40.98,5.83,82.05,10.96,123.21,15.39-1.76,16.36-2.64,24.53-4.4,40.89-31.62-3.4-47.41-5.27-78.97-9.35-3.91,30.18-5.86,45.27-9.77,75.45,25.6,3.32,38.41,4.86,64.05,7.73-1.83,16.35-2.75,24.52-4.58,40.87-25.92-2.9-38.87-4.47-64.76-7.82-4.54,35.07-6.81,52.61-11.36,87.69,33.33,4.32,50.01,6.29,83.4,9.88-1.76,16.36-2.64,24.53-4.39,40.89-44.43-4.78-88.78-10.31-133.01-16.61,13.52-95,27.05-190.01,40.57-285.01"/>
      <path class="cls-1" d="M832.24,351.09c22.72,2.28,34.08,3.32,56.83,5.24,10.04,58.55,20.61,116.97,31.73,175.32.34.02.52.04.86.06,4.11-57.29,8.22-114.58,12.33-171.88,16.16,1.16,24.25,1.69,40.42,2.67-5.79,95.78-11.59,191.57-17.38,287.35-20.13-1.22-30.19-1.89-50.31-3.37-14.23-71.22-27.62-142.56-40.16-214.09-.34-.03-.51-.04-.84-.07-6.2,69.77-12.41,139.55-18.61,209.33-17.43-1.55-26.14-2.37-43.56-4.12,9.57-95.48,19.13-190.96,28.7-286.45"/>
      <path class="cls-1" d="M1008.24,364.4c41.26,2.11,82.56,3.51,123.87,4.2-.28,16.45-.41,24.67-.69,41.12-31.75-.53-47.62-.97-79.36-2.2-1.17,30.41-1.76,45.62-2.93,76.03,25.75.99,38.62,1.38,64.38,1.92-.35,16.45-.52,24.67-.87,41.12-26.04-.55-39.06-.94-65.09-1.94-1.36,35.34-2.04,53.01-3.4,88.35,33.52,1.29,50.28,1.75,83.82,2.32-.28,16.45-.41,24.67-.69,41.12-44.6-.75-89.18-2.26-133.73-4.54,4.9-95.83,9.79-191.67,14.69-287.51"/>
      <path class="cls-1" d="M1146.93,616.42c30.44-68.32,59.65-137.07,87.68-206.42-32.42.37-48.63.38-81.05.03.18-16.45.26-24.67.44-41.12,42.96.46,85.93.16,128.88-.91.4,16.12.6,24.17,1,40.29-27.09,69.72-55.36,138.86-84.87,207.58,36.01-.06,54.01-.3,90.01-1.19.41,16.45.61,24.67,1.02,41.11-47.88.96-95.7,1.27-143.59.94.19-16.12.29-24.18.48-40.3"/>
      <path class="cls-1" d="M1308.48,367.26c18.17-.58,27.25-.93,45.42-1.74,4.27,95.86,8.55,191.73,12.82,287.59-19.61.87-29.42,1.25-49.03,1.88-3.07-95.91-6.14-191.82-9.21-287.73"/>
      <path class="cls-1" d="M1487.15,550.2c-10.68-46.74-21.17-93.52-31.47-140.34-.33.02-.5.04-.83.06-3.37,47.81-6.93,95.59-10.68,143.37,17.2-1.14,25.8-1.76,42.99-3.09M1422.8,361.79c24.58-1.56,36.87-2.45,61.43-4.44,23.59,94.45,48.21,188.61,73.89,282.51-19.56,1.84-29.34,2.7-48.91,4.29-5.41-22.5-8.09-33.76-13.4-56.27.03.33.04.49.06.82-21.92,1.73-32.89,2.52-54.83,3.94-2.06,22.72-3.11,34.08-5.27,56.79-18.17,1.13-27.26,1.65-45.43,2.57,11.89-96.62,22.71-193.34,32.47-290.2"/>
      <path class="cls-1" d="M1553,351.14c22.72-2.27,34.07-3.5,56.76-6.13,21.46,55.39,43.43,110.56,65.91,165.54.34-.04.51-.07.86-.11-7.33-56.97-14.66-113.94-22-170.91,16.09-2.07,24.14-3.15,40.21-5.41,13.32,95.03,26.63,190.06,39.95,285.09-20.01,2.8-30.03,4.14-50.06,6.69-28.1-66.98-55.38-134.24-81.87-201.87-.34.04-.5.06-.84.09,7.76,69.62,15.51,139.24,23.27,208.86-17.4,1.94-26.11,2.86-43.52,4.6-9.56-95.48-19.11-190.97-28.67-286.45"/>
      <path class="cls-1" d="M1845.17,505.31c-15.08-45.52-29.97-91.09-44.67-136.73-.33.05-.5.08-.83.14,1.15,47.91,2.1,95.83,2.87,143.75,17.06-2.77,25.59-4.2,42.62-7.16M1763.15,323.87c24.39-3.89,36.57-5.95,60.91-10.26,32.47,91.79,65.95,183.18,100.45,274.22-19.36,3.69-29.05,5.48-48.44,8.93-7.53-21.89-11.26-32.83-18.69-54.75.06.32.08.49.14.81-21.73,3.81-32.6,5.64-54.37,9.13.09,22.81.11,34.22.1,57.04-18.03,2.85-27.05,4.23-45.1,6.87,2.74-97.32,4.41-194.63,5.01-291.99"/>
    </g>
  </g>
</svg>